# xmcd CD database file
#
# Track frame offsets:
#	187
#	28750
#	41375
#	67912
#	92615
#	118275
#	136275
#	151820
#	168947
#	188817
#	205552
#	238470
#	265950
#	282275
#	306357
#
# Disc length: 4310 seconds
#
# Revision: 0
# Processed by: cddbd v1.5PL3 Copyright (c) Steve Scherf et al.
# Submitted via: CDex 1.51
#
DISCID=d010d40f
DTITLE=BLACK SABBATH - Blackest Sabbath
DYEAR=1989
DGENRE=Heavy Metal
TTITLE0=Black Sabbath
TTITLE1=Paranoid
TTITLE2=Iron Man
TTITLE3=Snowblind
TTITLE4=Sabbath Bloody Sabbath
TTITLE5=Hole In The Sky
TTITLE6=Rock and Roll Doctor
TTITLE7=Never Say Die
TTITLE8=Lady Evil
TTITLE9=Turn Up The Night
TTITLE10=The Sign Of The Southern Cross/Heaven and Hell
TTITLE11=Children Of The Sea (Live)
TTITLE12=Digital Bitch
TTITLE13=Seventh Star
TTITLE14=Born To Lose
EXTD=YEAR: 1989
EXTT0=
EXTT1=
EXTT2=
EXTT3=
EXTT4=
EXTT5=
EXTT6=
EXTT7=
EXTT8=
EXTT9=
EXTT10=
EXTT11=
EXTT12=
EXTT13=
EXTT14=
PLAYORDER=
